<svg width="20" height="20" viewBox="0 0 20 20" fill="none" xmlns="http://www.w3.org/2000/svg">
<g clipPath="url(#clip0_4_90)">
<path d="M20 6.24999C20 6.65546 19.7988 7.01757 19.4984 7.15195L10.6641 11.1051C10.235 11.2969 9.76719 11.2969 9.33813 11.1051L3.38125 8.4414C3.80937 7.84765 4.34688 7.40234 5.03125 7.19531L10.1219 5.60468C10.3904 5.52105 10.5525 5.18163 10.4862 4.84726C10.4198 4.51156 10.1434 4.30468 9.87969 4.39257L4.79063 5.98437C3.79375 6.29687 2.95625 7.02343 2.37719 7.99218L0.501562 7.15234C0.201187 7.01562 0 6.65624 0 6.24999C0 5.84374 0.201187 5.48242 0.501562 5.34804L9.33594 1.39492C9.765 1.20312 10.2328 1.20312 10.6619 1.39492L19.4963 5.34804C19.8 5.48437 20 5.84374 20 6.24999ZM10.9719 12.2812C10.6781 12.4258 10.3406 12.5 10 12.5C9.65875 12.5 9.32219 12.4271 9 12.283L4.4625 10.2539L4 15.832C4 17.4453 6.65938 18.75 10 18.75C13.2844 18.75 16 17.4453 16 15.8332L15.5381 10.2512L10.9719 12.2812Z" fill="#262D34"/>
<path opacity="0.4" d="M10.1219 5.60548L5.03123 7.19533C3.79998 7.58204 2.88748 8.78908 2.60248 10.2774C2.83842 10.4727 2.99998 10.8477 2.99998 11.25C2.99998 11.6388 2.84955 11.9723 2.62686 12.2016L3.4028 18.0219C3.45311 18.4024 3.21873 18.75 2.90967 18.75H1.0903C0.781327 18.75 0.546234 18.4032 0.597171 18.0223L1.37311 12.202C1.1503 11.9727 0.999984 11.6055 0.999984 11.25C0.999984 10.7328 1.25145 10.2887 1.60998 10.0988C1.95436 8.1129 3.15936 6.49415 4.78811 5.98556L9.87873 4.39493C10.1424 4.30704 10.4187 4.51396 10.4853 4.84962C10.5531 5.18361 10.3906 5.52345 10.1219 5.60548Z" fill="#262D34"/>
</g>
<defs>
<clipPath id="clip0_4_90">
<rect width="20" height="20" fill="white"/>
</clipPath>
</defs>
</svg>
