<svg width="38" height="40" viewBox="0 0 38 40" fill="none" xmlns="http://www.w3.org/2000/svg">
<path d="M18.4059 10.625C18.4059 10.2798 18.6906 10 18.9684 10C19.3094 10 19.5625 10.2798 19.5625 10.625V11.2809C22.4066 11.5945 24.625 14.2578 24.625 17.5V18.6367C24.625 20.3438 25.2367 21.9805 26.323 23.1914L26.418 23.2969C26.7098 23.6211 26.875 24.0273 26.875 24.5195C26.875 25.4766 26.1789 26.25 25.3176 26.25H12.6817C11.8221 26.25 11.125 25.4766 11.125 24.5195C11.125 24.0273 11.289 23.6211 11.581 23.2969L11.6777 23.1914C12.7643 21.9805 13.375 20.3438 13.375 18.6367V17.5C13.375 14.2578 15.5934 11.5945 18.4375 11.2809L18.4059 10.625ZM18.9684 12.5C16.5145 12.5 14.4684 14.7383 14.4684 17.5V18.6367C14.4684 20.6758 13.7709 22.6328 12.4732 24.0742L12.3766 24.1797C12.2954 24.2695 12.2184 24.3945 12.2184 24.5195C12.2184 24.7852 12.4434 25 12.6817 25H25.3176C25.5566 25 25.75 24.7852 25.75 24.5195C25.75 24.3945 25.7043 24.2695 25.6234 24.1797L25.5285 24.0742C24.2277 22.6328 23.5 20.6758 23.5 18.6367V17.5C23.5 14.7383 21.4855 12.5 18.9684 12.5ZM18.9684 28.75C19.4887 28.75 19.907 28.4023 20.0617 27.918C20.1637 27.5898 20.4871 27.3867 20.7789 27.5352C21.0707 27.6523 21.2254 28.0078 21.1234 28.332C20.8141 29.3047 19.9809 30 18.9684 30C18.0191 30 17.1859 29.3047 16.8766 28.332C16.7746 28.0078 16.9293 27.6523 17.2211 27.5352C17.5129 27.3867 17.8363 27.5898 17.9383 27.918C18.093 28.4023 18.5113 28.75 18.9684 28.75Z" fill="#262D34"/>
</svg>
